<svg width="63" height="55" viewBox="0 0 63 55" fill="none" xmlns="http://www.w3.org/2000/svg">
<path d="M16.0801 26.3333V40.7856H32.447L29.0337 37.7716H19.4934V29.3473L16.0801 26.3333Z" fill="#E1A524"/>
<path d="M60.231 48.7578L55.3328 44.3724V48.3208H7.54617V42.0666H10.9595V39.6554H7.54617V29.6337H10.9595V27.2224H7.54617V17.5775H10.9595V15.1662H7.54617V6.74197L34.7504 30.6283V26.3785L7.05124 2.04005C6.81253 1.82752 6.50755 1.68257 6.17518 1.62369C5.84281 1.56481 5.49811 1.59467 5.18503 1.70945C4.87196 1.82424 4.60468 2.01875 4.41729 2.26819C4.22989 2.51764 4.13087 2.81071 4.13284 3.11004V49.8278C4.13284 50.2275 4.31265 50.6108 4.63271 50.8934C4.95277 51.176 5.38687 51.3348 5.83951 51.3348H59.0192C59.3582 51.3366 59.6901 51.2491 59.9726 51.0836C60.2551 50.9182 60.4754 50.6822 60.6054 50.4057C60.7354 50.1292 60.7692 49.8249 60.7025 49.5314C60.6358 49.2379 60.4717 48.9686 60.231 48.7578Z" fill="#E1A524"/>
<path d="M41.6799 45.3067H48.5066C49.4119 45.3067 50.2801 44.9892 50.9202 44.4239C51.5603 43.8587 51.9199 43.092 51.9199 42.2927V13.2071L47.9946 6.83239C47.691 6.36795 47.2526 5.98345 46.7246 5.71853C46.1966 5.45362 45.5981 5.3179 44.9909 5.32536C44.3699 5.32971 43.762 5.48357 43.2327 5.77037C42.7034 6.05717 42.2728 6.46604 41.9871 6.95295L38.2666 13.2372V42.2927C38.2666 43.092 38.6262 43.8587 39.2663 44.4239C39.9065 44.9892 40.7747 45.3067 41.6799 45.3067ZM41.6799 13.9606L44.9909 8.27913L48.5066 13.9757V36.2646H41.6799V13.9606ZM41.6799 38.721H48.5066V42.3982H41.6799V38.721Z" fill="#E1A524"/>
</svg>
