<svg width="62" height="56" viewBox="0 0 62 56" fill="none" xmlns="http://www.w3.org/2000/svg">
<path fill-rule="evenodd" clip-rule="evenodd" d="M17.8355 13.1134C18.0262 13.2936 18.1775 13.5077 18.2808 13.7435C18.384 13.9792 18.4371 14.2319 18.4371 14.4871C18.4371 14.7424 18.384 14.9951 18.2808 15.2308C18.1775 15.4665 18.0262 15.6806 17.8355 15.8609L4.94694 28.0693L17.8355 40.2777C18.22 40.6421 18.4361 41.1362 18.4361 41.6515C18.4361 42.1667 18.22 42.6609 17.8355 43.0252C17.451 43.3896 16.9295 43.5942 16.3857 43.5942C15.8419 43.5942 15.3204 43.3896 14.9359 43.0252L0.601605 29.4431C0.410905 29.2628 0.259605 29.0487 0.156372 28.813C0.0531384 28.5772 0 28.3245 0 28.0693C0 27.8141 0.0531384 27.5614 0.156372 27.3257C0.259605 27.0899 0.410905 26.8758 0.601605 26.6956L14.9359 13.1134C15.1261 12.9327 15.3521 12.7893 15.6009 12.6915C15.8497 12.5937 16.1164 12.5434 16.3857 12.5434C16.6551 12.5434 16.9218 12.5937 17.1705 12.6915C17.4193 12.7893 17.6453 12.9327 17.8355 13.1134ZM43.6045 13.1134C43.4138 13.2936 43.2625 13.5077 43.1592 13.7435C43.056 13.9792 43.0029 14.2319 43.0029 14.4871C43.0029 14.7424 43.056 14.9951 43.1592 15.2308C43.2625 15.4665 43.4138 15.6806 43.6045 15.8609L56.4931 28.0693L43.6045 40.2777C43.4141 40.4581 43.2631 40.6723 43.16 40.908C43.057 41.1437 43.0039 41.3964 43.0039 41.6515C43.0039 41.9066 43.057 42.1592 43.16 42.395C43.2631 42.6307 43.4141 42.8448 43.6045 43.0252C43.7949 43.2056 44.0209 43.3487 44.2697 43.4464C44.5184 43.544 44.785 43.5942 45.0543 43.5942C45.3235 43.5942 45.5902 43.544 45.8389 43.4464C46.0877 43.3487 46.3137 43.2056 46.5041 43.0252L60.8384 29.4431C61.0291 29.2628 61.1804 29.0487 61.2836 28.813C61.3869 28.5772 61.44 28.3245 61.44 28.0693C61.44 27.8141 61.3869 27.5614 61.2836 27.3257C61.1804 27.0899 61.0291 26.8758 60.8384 26.6956L46.5041 13.1134C46.3139 12.9327 46.0879 12.7893 45.8391 12.6915C45.5903 12.5937 45.3236 12.5434 45.0543 12.5434C44.7849 12.5434 44.5182 12.5937 44.2695 12.6915C44.0207 12.7893 43.7947 12.9327 43.6045 13.1134ZM39.5131 0.99033C40.0316 1.14235 40.4652 1.4832 40.7186 1.93798C40.972 2.39276 41.0245 2.92427 40.8646 3.41572L24.4825 53.8638C24.3071 54.3369 23.9452 54.7272 23.4727 54.953C23.0002 55.1788 22.4538 55.2226 21.9481 55.075C21.4423 54.9275 21.0164 54.6002 20.7598 54.1617C20.5031 53.7232 20.4356 53.2076 20.5713 52.7229L36.9534 2.27482C37.1138 1.78351 37.4735 1.37266 37.9535 1.13254C38.4335 0.892412 38.9944 0.842659 39.5131 0.994211V0.99033Z" fill="#E1A524"/>
</svg>
