<svg width="73" height="73" viewBox="0 0 73 73" fill="none" xmlns="http://www.w3.org/2000/svg">
<path d="M65.1805 19.1745C65.177 19.1416 65.1714 19.1092 65.1658 19.077C65.1638 19.066 65.1626 19.0547 65.1609 19.0439C65.1532 19.0056 65.1432 18.9678 65.1324 18.9305C65.1309 18.9258 65.1302 18.9211 65.1287 18.9162C65.1172 18.8789 65.1037 18.8418 65.0889 18.8058C65.0872 18.8013 65.086 18.7967 65.084 18.7923C65.0698 18.7581 65.0536 18.725 65.0366 18.6921C65.0334 18.686 65.031 18.6791 65.0276 18.6732C65.0118 18.6432 64.9934 18.6145 64.9755 18.5861C64.9701 18.5775 64.9652 18.5684 64.9596 18.56C64.9424 18.534 64.923 18.5092 64.9036 18.4844C64.8957 18.4744 64.8889 18.4636 64.8808 18.454C64.8572 18.4253 64.8319 18.398 64.8059 18.3713C64.801 18.3664 64.7973 18.3612 64.7924 18.3563L46.8303 0.394722V0.394476C46.7992 0.363301 46.7663 0.333844 46.7326 0.306106C46.7253 0.299969 46.7172 0.294569 46.7096 0.288923C46.6823 0.267567 46.6548 0.246456 46.6266 0.227554C46.6197 0.222645 46.6121 0.218963 46.6052 0.214544C46.575 0.195152 46.5446 0.17625 46.5129 0.159313C46.5085 0.156858 46.5036 0.154894 46.4989 0.152685C46.4643 0.134765 46.4295 0.117582 46.3934 0.102854C46.3914 0.101872 46.389 0.101381 46.3872 0.100399C46.3487 0.084443 46.3097 0.070451 46.2697 0.0581773C46.268 0.0576864 46.2662 0.0576864 46.2648 0.0571954C46.2245 0.0449217 46.1835 0.0346118 46.142 0.0262657C46.1369 0.0250383 46.1312 0.0247929 46.1261 0.0235655C46.0883 0.0166922 46.05 0.0103099 46.0112 0.00662779C45.9866 0.00417306 45.9618 0.00392758 45.9368 0.00294569C45.9174 0.00220926 45.8978 0 45.8776 0C45.8772 0 45.8769 0 45.8764 0H9.15966C8.41563 0 7.8125 0.603129 7.8125 1.34716V71.6528C7.8125 72.3966 8.41563 72.9997 9.15966 72.9997H63.84C64.584 72.9997 65.1871 72.3966 65.1871 71.6528V19.309V19.3087C65.1871 19.307 65.1866 19.305 65.1866 19.3036C65.1866 19.2599 65.1844 19.2169 65.1805 19.1745ZM60.5882 17.9623L47.2258 17.9638L47.2248 4.59969L60.5882 17.9623ZM62.4928 70.3059H10.5066V2.69432H44.5305L44.5315 19.3112C44.5315 19.6683 44.6734 20.0113 44.9259 20.2636C45.1785 20.5162 45.5215 20.6581 45.8786 20.6581L62.4928 20.6561V70.3059V70.3059Z" fill="white"/>
<path d="M27.5021 18.8566C30.5907 18.8566 33.1031 16.3434 33.1031 13.2541C33.1031 10.1648 30.5907 7.65166 27.5021 7.65166C24.4133 7.65166 21.9004 10.1648 21.9004 13.2541C21.9001 16.3434 24.4133 18.8566 27.5021 18.8566ZM27.5021 10.3457C29.1048 10.3457 30.409 11.6504 30.409 13.2544C30.409 14.8578 29.1048 16.1627 27.5021 16.1627C25.8989 16.1627 24.5947 14.858 24.5947 13.2544C24.5947 11.6504 25.8987 10.3457 27.5021 10.3457Z" fill="white"/>
<path d="M21.2434 29.0813C21.9874 29.0813 22.5906 28.4782 22.5906 27.7344V25.3714C22.5906 23.8441 23.8336 22.6018 25.361 22.6018H29.6769C31.2052 22.6018 32.4485 23.8444 32.4485 25.3714V27.7344C32.4485 28.4782 33.0514 29.0813 33.7955 29.0813C34.5395 29.0813 35.1426 28.4782 35.1426 27.7344V25.3714C35.1426 22.3587 32.6908 19.9077 29.6767 19.9077H25.3607C22.3475 19.9077 19.896 22.3585 19.896 25.3714V27.7344C19.8965 28.4782 20.4996 29.0813 21.2434 29.0813Z" fill="white"/>
<path d="M19.8965 38.5885C19.8965 39.3323 20.4996 39.9354 21.2434 39.9354H51.757C52.501 39.9354 53.1042 39.3323 53.1042 38.5885C53.1042 37.8444 52.501 37.2413 51.757 37.2413H21.2434C20.4996 37.2413 19.8965 37.8444 19.8965 38.5885Z" fill="white"/>
<path d="M51.757 57.1745H21.2434C20.4996 57.1745 19.8965 57.7777 19.8965 58.5217C19.8965 59.2657 20.4996 59.8689 21.2434 59.8689H51.757C52.501 59.8689 53.1042 59.2657 53.1042 58.5217C53.1044 57.7777 52.501 57.1745 51.757 57.1745Z" fill="white"/>
<path d="M51.757 47.2078H21.2434C20.4996 47.2078 19.8965 47.811 19.8965 48.555C19.8965 49.299 20.4996 49.9021 21.2434 49.9021H51.757C52.501 49.9021 53.1042 49.299 53.1042 48.555C53.1044 47.811 52.501 47.2078 51.757 47.2078Z" fill="white"/>
</svg>
