<svg height="25" viewBox="0 0 25 25" width="25" xmlns="http://www.w3.org/2000/svg"><path d="m12.5001035-1c6.9033326 0 12.4998965 5.5083168 12.4998965 12.3037073 0 5.4343564-3.5771062 10.0447574-8.5410888 11.6735159-.6336162.1208223-.8586214-.2628344-.8586214-.5902569 0-.3604068.0114487-1.4473425.0139928-2.8405268l.0004969-.5359786c0-1.1479141-.3995032-1.8966866-.8478575-2.2785096 2.7834816-.3046027 5.7077209-1.3451418 5.7077209-6.070864 0-1.34330803-.4849927-2.44089644-1.2864831-3.3025451.1297868-.31010388.5578555-1.56131799-.1225419-3.25609065 0 0-1.0482302-.33068239-3.4340716 1.26119774-.9989651-.27261431-2.0691369-.40932896-3.1314428-.41401516-1.0623059.0046862-2.1316498.14140085-3.12875181.41401516-2.38873939-1.59188013-3.43841855-1.26119774-3.43841855-1.26119774-.67874146 1.69477266-.25087973 2.94598677-.12109294 3.25609065-.79962741.86164866-1.28793211 1.95923707-1.28793211 3.3025451 0 4.7145161 2.91865039 5.7695212 5.69509421 6.0806439-.35748295.3070476-.68143244.8502388-.79362453 1.6452619-.71330988.3143826-2.52266612.858185-3.63754916-1.022813 0 0-.66093977-1.1813287-1.91616643-1.2679214 0 0-1.21962326-.0156886-.08548954.7479575 0 0 .81929207.3781556 1.3879114 1.8003139 0 0 .73380253 2.1959918 4.21134341 1.4517018.00538191 1.0281105.01697371 1.9973379.01697371 2.2907344 0 .3249775-.2293521.7057818-.85406748.5918869-4.96667357-1.6269247-8.54833368-6.2389558-8.54833368-11.6751459 0-6.7953905 5.59739184-12.3037073 12.5001035-12.3037073zm-4.40716208 19.9063458c.14862347-.0028524.2703374.0786466.2703374.1795017.00351894.1014663-.11653901.1856141-.26516249.187244-.14945146.0034637-.2703374-.0786465-.27199337-.1784829 0-.102485.117367-.1858178.26681846-.1882628zm1.22231422.0199673c.0178017.0990213-.08548955.2006914-.23307804.2275861-.14510453.0262834-.27944525-.0348409-.29786793-.1330472-.0180087-.1014663.08714552-.2031364.23204305-.2294198.14779549-.0252647.28006624.0342296.29890292.1348809zm-2.17946595-.1662581c.1411716.041972.23390603.1540332.20451252.2520358-.03022148.0963727-.17077209.1401784-.31235769.0992251-.14137859-.0421757-.23390602-.1550519-.2053405-.2524433.0293935-.0969838.1705651-.1426233.31318567-.0988176zm-.79548748-.4598583c.10846616.0990213.1415856.2408296.06851584.3143825-.06851584.0743679-.21444835.0544006-.32125854-.0470657-.10929414-.0992251-.13972262-.2400147-.07099979-.3143825.06934382-.0745717.21610432-.0535857.32374249.0470657zm-.60484371-.6662547c.0763817.1110424.0763817.2424596-.00186297.2960452-.0765887.0523632-.20182157.00326-.27923825-.1061525-.0765887-.1094124-.0765887-.2406259.00165597-.2931928.07762368-.0525669.20099358-.0052974.27944525.1033001z" fill="#fff" fill-rule="evenodd" transform="translate(0 1)"/></svg>