<svg width="50" height="48" viewBox="0 0 50 48" fill="none" xmlns="http://www.w3.org/2000/svg">
<path d="M11.3504 47.7938V15.5473H0.63236V47.7938H11.3504ZM5.99277 11.142C9.73035 11.142 12.0568 8.66581 12.0568 5.57144C11.9872 2.4073 9.73049 -0.00012207 6.0637 -0.00012207C2.39748 -0.00012207 0 2.40735 0 5.57144C0 8.66595 2.32589 11.142 5.9228 11.142H5.99244H5.99277ZM17.2828 47.7938H28.0009V29.7858C28.0009 28.822 28.0705 27.8592 28.3535 27.1703C29.1284 25.2447 30.8919 23.2504 33.8527 23.2504C37.7311 23.2504 39.2827 26.2075 39.2827 30.5424V47.7935H50.0001V29.3037C50.0001 19.3989 44.7124 14.7903 37.6605 14.7903C31.8786 14.7903 29.3399 18.0222 27.9296 20.2234H28.0011V15.5466H17.2831C17.4237 18.5725 17.2831 47.7931 17.2831 47.7931L17.2828 47.7938Z" fill="white"/>
</svg>
