<svg width="690" height="300" viewBox="0 0 690 300" fill="none" xmlns="http://www.w3.org/2000/svg">
<g clip-path="url(#clip0)">
<path d="M412.017 -27.1423L415.777 -26.5372C415.714 -26.3935 415.651 -26.2509 415.588 -26.1095C415.17 -25.1619 414.777 -24.2711 414.509 -23.4737C414.151 -22.4049 413.962 -21.3586 414.333 -20.4564C414.717 -19.523 415.626 -18.9039 417.057 -18.5146C418.487 -18.1259 420.54 -17.936 423.397 -17.9387L433.158 -16.9334C436.933 -16.1196 438.565 -15.0659 439.228 -13.7819C439.564 -13.1335 439.681 -12.3741 439.648 -11.4501C439.616 -10.5362 439.439 -9.49965 439.209 -8.29534L433.514 3.75203C432.533 5.33901 431.957 6.65821 431.814 7.77348C431.665 8.93289 431.988 9.86795 432.757 10.605C433.493 11.3101 434.606 11.8028 435.978 12.2054C437.359 12.6109 439.07 12.943 441.055 13.288L441.072 13.291L441.089 13.2927C446.944 13.8915 451.041 14.8901 453.303 16.5547C454.412 17.3707 455.058 18.3316 455.274 19.4805C455.492 20.6397 455.284 22.0539 454.554 23.7909L448.743 34.6882C447.737 36.3276 447.065 37.71 446.812 38.8941C446.551 40.1084 446.726 41.1489 447.444 42.0213C448.134 42.8593 449.277 43.4796 450.807 44.0059C452.344 44.5348 454.343 44.9915 456.818 45.4583C459.273 46.0664 461.425 46.6414 463.226 47.2805C465.035 47.9221 466.456 48.6163 467.466 49.4453C468.463 50.2637 469.054 51.2075 469.232 52.3765C469.41 53.5487 469.181 55.0039 468.423 56.8595L458.949 68.2412L458.946 68.2445C457.895 69.5293 457.217 70.6528 457.013 71.6947C456.798 72.7869 457.112 73.7311 457.887 74.5894C458.636 75.4189 459.823 76.1808 461.388 76.9814C462.961 77.7859 464.967 78.6549 467.394 79.6811C470.073 80.886 472.277 82.0012 473.986 83.0817C475.702 84.1668 476.883 85.1938 477.555 86.2077C478.212 87.1988 478.386 88.1781 478.088 89.2363C477.783 90.3212 476.969 91.5371 475.535 92.9379L463.604 102.677L463.577 102.698L463.554 102.723C462.642 103.702 462.048 104.662 461.928 105.697C461.807 106.748 462.184 107.768 462.979 108.836C463.769 109.897 465.005 111.05 466.689 112.39C468.375 113.731 470.537 115.279 473.203 117.129C474.685 118.284 475.958 119.401 476.878 120.514C477.8 121.631 478.335 122.705 478.407 123.777C478.478 124.834 478.105 125.974 477.035 127.243C475.962 128.517 474.206 129.898 471.566 131.411L462.25 135.358L462.235 135.364L462.221 135.371C461.045 135.962 460.007 136.49 459.191 137.041C458.374 137.592 457.722 138.203 457.373 138.989C457.017 139.788 457.006 140.692 457.316 141.759C457.621 142.809 458.246 144.051 459.207 145.569C459.962 147.12 460.682 148.551 461.347 149.87L461.444 150.062C462.076 151.315 462.655 152.463 463.167 153.522C464.248 155.757 465.009 157.548 465.327 159.014C465.642 160.466 465.507 161.523 464.89 162.365C464.282 163.197 463.141 163.911 461.218 164.53L457.901 161.758C458.592 161.764 459.22 161.719 459.778 161.619C460.716 161.451 461.503 161.117 462.023 160.562C462.562 159.985 462.755 159.233 462.618 158.375C462.484 157.54 462.039 156.597 461.303 155.555C458.813 151.724 456.904 148.533 455.571 145.86C454.234 143.18 453.496 141.057 453.314 139.356C453.134 137.676 453.499 136.433 454.358 135.45C455.236 134.445 456.681 133.655 458.779 133.008L458.799 133.001L458.818 132.993L470.247 128.38L470.247 128.38L470.254 128.377C471.405 127.89 472.389 127.423 473.129 126.922C473.864 126.425 474.43 125.846 474.628 125.107C474.83 124.352 474.615 123.563 474.088 122.729C473.563 121.897 472.691 120.959 471.457 119.862L471.434 119.842L471.409 119.824C468.34 117.709 465.733 115.849 463.654 114.15C461.57 112.448 460.045 110.931 459.115 109.51C458.192 108.101 457.877 106.82 458.145 105.552C458.416 104.268 459.306 102.906 460.992 101.384L471.97 92.4233C473.081 91.6755 473.942 90.9268 474.468 90.1673C475.007 89.3906 475.222 88.5596 474.936 87.7192C474.661 86.9111 473.957 86.2043 472.923 85.5661C471.884 84.9244 470.447 84.3132 468.594 83.7218C465.391 82.443 462.624 81.2999 460.356 80.1772C458.08 79.05 456.345 77.9613 455.186 76.8065C454.04 75.664 453.478 74.4788 453.492 73.1293C453.505 71.7591 454.111 70.1386 455.482 68.1395L463.687 57.8004C464.74 57.0903 465.541 56.2359 465.969 55.3077C466.412 54.3465 466.45 53.3116 465.956 52.3408C465.47 51.3866 464.503 50.5582 463.064 49.9104C461.627 49.2636 459.682 48.7791 457.167 48.5301C453.931 47.8461 451.234 47.2043 449.099 46.468C446.95 45.7268 445.432 44.9096 444.507 43.9119C443.61 42.9438 443.237 41.7699 443.456 40.1958C443.681 38.5897 444.523 36.5743 446.085 33.9921L446.091 33.9823L446.096 33.9722L450.693 25.5155C451.455 24.3702 452.053 23.3392 452.344 22.4126C452.642 21.4633 452.636 20.5621 452.102 19.7594C451.589 18.9893 450.646 18.4004 449.297 17.9072C447.937 17.4098 446.089 16.9834 443.672 16.5884C440.198 16.0207 437.308 15.4651 435.005 14.7767C432.696 14.0863 431.033 13.2782 429.965 12.2406C428.923 11.2268 428.416 9.96168 428.481 8.25093C428.548 6.51269 429.207 4.31577 430.533 1.49108C430.533 1.48945 430.534 1.48783 430.535 1.4862L434.878 -7.28918C434.879 -7.29036 434.879 -7.29153 434.88 -7.29271C435.514 -8.53156 435.919 -9.57275 436.051 -10.4408C436.185 -11.3248 436.041 -12.0861 435.51 -12.671C435.001 -13.2302 434.21 -13.5442 433.245 -13.7293C432.271 -13.916 431.04 -13.9856 429.566 -13.9912C425.81 -14.111 422.562 -14.2696 419.849 -14.5782C417.127 -14.8877 414.982 -15.3444 413.416 -16.0419C411.861 -16.7345 410.925 -17.6416 410.525 -18.8402C410.118 -20.0603 410.23 -21.6856 411.011 -23.8835L411.015 -23.8935L411.018 -23.9036L412.017 -27.1423Z" fill="#EDC7B7" stroke="#AC3B61"/>
<path d="M458.909 161.333C461.856 152.592 465.369 153.192 469.409 161.333L458.909 161.333Z" fill="#EDC7B7" stroke="#AC3B61"/>
<path d="M453.966 188.978L453.962 188.733L453.766 188.587L445.581 182.453C445.581 182.453 445.58 182.453 445.58 182.452C444.567 181.683 443.799 180.636 443.37 179.439C442.94 178.242 442.867 176.946 443.16 175.708C443.16 175.708 443.16 175.707 443.161 175.707L445.396 166.487C445.396 166.487 445.396 166.486 445.397 166.486C445.708 165.234 446.384 164.101 447.338 163.232C448.292 162.362 449.481 161.794 450.757 161.599L466.741 159.313C467.611 159.195 468.496 159.255 469.342 159.489C470.189 159.722 470.979 160.124 471.666 160.671C472.353 161.218 472.922 161.899 473.339 162.671C473.756 163.443 474.012 164.291 474.092 165.164C476.55 195.846 465.343 216.058 451.12 229.256C436.878 242.471 419.585 248.673 409.878 251.248C408.989 251.477 408.061 251.516 407.155 251.362C406.25 251.208 405.387 250.863 404.624 250.351C403.861 249.84 403.215 249.172 402.728 248.393C402.242 247.614 401.926 246.74 401.801 245.83L401.801 245.83L401.801 245.827L399.592 230.389C399.413 229.11 399.621 227.807 400.189 226.646C400.757 225.486 401.66 224.522 402.78 223.878L402.781 223.878L411.012 219.145L411.015 219.143C412.114 218.501 413.378 218.196 414.648 218.267C415.919 218.339 417.141 218.783 418.16 219.544C418.161 219.544 418.161 219.544 418.161 219.544L426.347 225.679L426.548 225.829L426.789 225.758L426.647 225.278C426.789 225.758 426.79 225.758 426.79 225.758L426.792 225.757L426.796 225.756L426.813 225.751L426.875 225.731C426.929 225.714 427.009 225.689 427.111 225.655C427.317 225.587 427.615 225.484 427.994 225.343C428.752 225.062 429.831 224.63 431.122 224.022C433.703 222.808 437.14 220.893 440.564 218.085C447.418 212.462 454.223 203.255 453.966 188.978Z" fill="#EDC7B7" stroke="#AC3B61"/>
<path d="M65.5 132.5C75.7769 128.5 78.5 131 75.7769 139.088L70.8317 151.853C70.5158 152.669 69.3791 152.714 68.9987 151.927L66.6664 147.098C66.5447 146.846 66.5341 146.554 66.6373 146.294L69.7111 138.547C70.0245 137.757 69.2534 136.965 68.445 137.227C41.6006 145.915 43.6296 140.204 59.3968 123.191C59.9879 122.553 59.5296 121.51 58.6602 121.491C30.7363 120.899 33.6193 116.092 53.442 104.715C54.2375 104.258 54.0588 103.05 53.1656 102.842C26.931 96.7401 29.4529 92.505 51.0288 85.0049C51.909 84.699 51.9494 83.4516 51.0868 83.0991C26.7705 73.1633 29.9691 69.3411 52.7527 65.2082C53.6815 65.0397 53.8976 63.7848 53.0784 63.316C31.947 51.2235 33.2449 47.0933 56.9493 45.2766C57.9148 45.2026 58.2438 43.921 57.4326 43.3922C36.8647 29.9845 38.5965 26.0802 62.3556 25.9956C63.3244 25.9922 63.7444 24.7364 62.9732 24.15C44.2187 9.8902 45.2155 5.50856 70.577 6.56424C71.5185 6.60343 72.0056 5.43044 71.3153 4.7891C50.7002 -14.3624 59.194 -15.8109 76.8386 -7.62048C77.7263 -7.2084 78.654 -8.18792 78.1927 -9.05108C67.5638 -28.9385 69.7 -31.6571 86.8708 -20.8047C87.7351 -20.2585 88.8068 -21.2054 88.3626 -22.1263C80.208 -39.0314 81.5983 -42.6073 99.3686 -31.4126C100.204 -30.886 101.252 -31.758 100.877 -32.6718C93.4273 -50.8122 94.5862 -54.7036 112.081 -40.9701C112.856 -40.3623 113.983 -41.1181 113.711 -42.0641C108.092 -61.6045 110.633 -63.7271 125.579 -49.0323C126.288 -48.3355 127.501 -48.9804 127.317 -49.9569C123.596 -69.6638 126.054 -72.2478 139.431 -57.0518C140.1 -56.2912 141.383 -56.876 141.231 -57.8779C138.455 -76.1482 139.866 -81.017 154.481 -62.8937C155.095 -62.1321 156.354 -62.6035 156.312 -63.5811C155.445 -83.6104 158.04 -86.3022 169.648 -67.3992C170.172 -66.5452 171.519 -66.8917 171.559 -67.8931C172.374 -88.4371 175.253 -90.7837 185.301 -70.5263C185.746 -69.6294 187.116 -69.8531 187.248 -70.8456C190.232 -93.3236 194.067 -95.6179 204.907 -72.7154C205.318 -71.8486 206.613 -71.9885 206.831 -72.9225C212.393 -96.7635 216.709 -97.4247 225.429 -74.1874C225.762 -73.3021 227.038 -73.3158 227.351 -74.208C235.432 -97.2311 239.429 -97.0941 245.675 -75.2193C245.947 -74.2667 247.316 -74.2276 247.643 -75.1628C256.055 -99.2252 260.212 -95.6261 266.427 -72.2366C266.539 -71.8145 266.366 -71.3556 265.996 -71.1229L262.84 -69.1366C262.301 -68.7975 261.586 -69.0417 261.368 -69.6397L257.349 -80.6373C257.014 -81.5541 255.687 -81.4838 255.418 -80.5453C248.876 -57.6728 244.558 -59.4858 237.258 -80.3933C236.931 -81.3326 235.558 -81.3016 235.29 -80.3433C231.09 -65.2782 227.62 -60.7444 223.453 -65.103C223.344 -65.2173 223.261 -65.3715 223.22 -65.524C216.162 -91.3067 214.982 -82.1558 212.289 -70.9021C209.072 -52.3201 203.806 -64.4581 196.157 -78.0957C195.687 -78.9334 194.43 -78.674 194.311 -77.7209C192.335 -61.8751 190.681 -55.3474 185.743 -60.3751C185.667 -60.4521 185.599 -60.5521 185.552 -60.6497C176.605 -79.6029 176.654 -73.5602 177.16 -61.4995C177.164 -61.3954 177.151 -61.2849 177.123 -61.1846C175.071 -53.8852 173.008 -55.1778 169.048 -59.5475C168.989 -59.6122 168.935 -59.6905 168.896 -59.7682C160.901 -75.3585 161.516 -68.8802 162.292 -58.3013C161.963 -49.5864 159.851 -49.7891 154.507 -54.4581C154.426 -54.5293 154.352 -54.6204 154.297 -54.714C145.875 -69.1969 145.79 -65.371 148.095 -52.2859C148.107 -52.2156 148.112 -52.1384 148.11 -52.0671C147.689 -41.7749 145.174 -43.9527 140.735 -47.8253C140.681 -47.8726 140.628 -47.9302 140.585 -47.9881C128.865 -63.788 131.983 -55.7542 134.892 -46.0872C134.918 -46.0002 134.932 -45.9049 134.934 -45.814C135.11 -35.3133 131.935 -37.1935 126.028 -41.257C125.962 -41.3023 125.897 -41.3598 125.844 -41.4194C114.765 -53.8249 117.276 -48.3257 121.13 -39.4503C121.177 -39.342 121.205 -39.2198 121.212 -39.1019C121.771 -28.7191 119.575 -29.0147 114.548 -32.3767C114.508 -32.4033 114.467 -32.4353 114.432 -32.4674C100.907 -44.6645 102.304 -40.5179 108.903 -28.1488C108.976 -28.0128 109.018 -27.8528 109.022 -27.6987C109.21 -20.1376 107.188 -20.4989 103.055 -22.4622C102.985 -22.4959 102.913 -22.5418 102.852 -22.5911C86.5556 -35.7744 90.788 -29.1125 96.9266 -18.7527C96.9929 -18.6409 97.0384 -18.5112 97.0567 -18.3825C98.1098 -10.9667 96.1185 -10.4479 90.0428 -13.2206C89.9918 -13.2439 89.939 -13.2738 89.8927 -13.3053C76.1515 -22.6519 76.9695 -20.2856 85.4988 -9.78217C85.5562 -9.71141 85.6073 -9.6275 85.6433 -9.54379C89.3916 -0.847752 87.4355 0.761282 77.8894 -1.37593C77.7854 -1.39923 77.6742 -1.44501 77.5828 -1.49995C60.471 -11.7836 74.8682 -0.483938 75.972 0.377906C76.0201 0.415482 76.0601 0.454185 76.1006 0.499864C84.9812 10.5164 80.9738 13.9962 69.8221 12.3713C50.988 9.13976 58.6053 13.4892 67.5852 19.6855C77 27.5 74.5 32 63.4588 30.831C47.5224 30.1808 47.4871 31.9879 61.5843 38.6518C61.6397 38.6779 61.6969 38.7116 61.7465 38.7476C70.4883 45.0897 68.4724 50.0014 58.9865 50.4842C39.2713 51.1141 45.6371 53.6895 58.117 58.416C58.1666 58.4348 58.2177 58.459 58.2636 58.4855C66.9916 63.5215 65.4251 67.5051 57.1011 69.3904C39.7919 71.7249 39.0027 72.9955 56.1175 78.3179C56.1759 78.336 56.2378 78.3617 56.2918 78.3903C65.9828 83.5201 62.9773 87.008 55.0668 89.7893C34.0929 94.655 42.8109 95.4512 54.3225 97.2523C62.3863 98.3186 65.8818 101.891 61.6023 105.457C61.5614 105.491 61.5136 105.524 61.4674 105.551C42.3365 116.662 41.935 117.81 62 115.5C70.4754 115.002 68.3805 121.411 63.4331 127.244C63.4016 127.281 63.3656 127.317 63.329 127.349C52.4537 136.878 52.0233 137.991 65.5 132.5Z" fill="#EDC7B7" stroke="#AC3B61"/>
<path d="M63.9999 145.378C72.3527 141.464 74.348 144.417 71.2593 152.964L63.9999 145.378Z" fill="#EDC7B7" stroke="#AC3B61"/>
<path d="M50.197 222.137L50.3226 222.347L50.5653 222.377L60.7169 223.621C60.7175 223.621 60.7181 223.621 60.7187 223.621C61.9802 223.784 63.1672 224.31 64.1356 225.134C65.1041 225.959 65.8124 227.046 66.1747 228.266C66.1748 228.266 66.175 228.266 66.1751 228.267L68.826 237.376C68.8262 237.376 68.8263 237.377 68.8265 237.377C69.1797 238.618 69.1577 239.937 68.7632 241.166C68.3688 242.395 67.6196 243.479 66.6101 244.284L53.8861 254.225C53.1901 254.759 52.3931 255.148 51.5432 255.367C50.6927 255.586 49.8067 255.63 48.9387 255.498C48.0706 255.366 47.2384 255.059 46.4921 254.597C45.7466 254.135 45.1024 253.527 44.5979 252.809C27.1918 227.424 26.848 204.315 32.6125 185.789C38.385 167.237 50.2945 153.249 57.4314 146.183C58.0884 145.541 58.8737 145.046 59.7357 144.729C60.5983 144.412 61.5181 144.281 62.4346 144.345C63.3512 144.409 64.2438 144.666 65.0536 145.1C65.8634 145.533 66.5722 146.133 67.1332 146.861L67.1332 146.861L67.1351 146.863L76.7363 159.152C77.5284 160.172 77.9971 161.406 78.0821 162.695C78.1671 163.985 77.8645 165.27 77.213 166.386L77.2129 166.387L72.4306 174.589L72.4288 174.592C71.7957 175.697 70.8513 176.59 69.7136 177.161C68.576 177.732 67.2957 177.955 66.0324 177.803C66.0322 177.802 66.032 177.802 66.0318 177.802L55.878 176.558L55.6284 176.527L55.455 176.709L55.8171 177.054C55.455 176.709 55.4548 176.71 55.4545 176.71L55.4535 176.711L55.4502 176.714L55.4383 176.727L55.3939 176.775C55.3553 176.817 55.2992 176.878 55.2271 176.959C55.083 177.12 54.8751 177.358 54.6165 177.668C54.0994 178.29 53.3793 179.202 52.5619 180.371C50.9279 182.709 48.9005 186.082 47.3293 190.221C44.1835 198.51 42.8666 209.883 50.197 222.137Z" fill="#EDC7B7" stroke="#AC3B61"/>
<path d="M398.246 -364.864C384.082 -371.499 382.784 -362.784 392.618 -325.737C392.859 -324.831 394.106 -324.712 394.493 -325.566L398.598 -334.61C398.715 -334.867 398.714 -335.171 398.601 -335.431C390.128 -354.927 389.954 -358.999 405.941 -341.609C405.994 -341.551 406.06 -341.494 406.126 -341.451C414.17 -336.127 416.639 -344.089 412.626 -370.732C407.086 -405.822 408.217 -404.857 417.845 -377.635C423.723 -365.573 430.205 -361.318 429.692 -384.106C427.345 -437.687 428.504 -436.803 439.724 -387.667C443.328 -376.707 446.941 -386.945 448.006 -409.022C449.8 -440.451 450.589 -464.12 455.501 -408.75C458.312 -388.027 461.831 -380.758 466.994 -408.331C472.34 -455.927 473.618 -454.171 475.988 -408.004C477.897 -385.959 481.915 -382.706 486.981 -407.604C491.729 -442.458 494.317 -460.383 494.975 -407.313C495.474 -381.798 500.436 -377.557 506.82 -402.821C513.527 -442.582 515.35 -442.995 514.716 -399.827C513.556 -369.813 518.078 -364.123 525.913 -391.298C532.124 -416.926 536.482 -438.455 533.261 -386.97C531.641 -356.5 535.155 -346.53 545.242 -372.949C545.254 -372.98 545.257 -372.984 545.265 -373.016C545.545 -374.047 557.852 -419.332 547.112 -368.87C544.919 -342.212 546.518 -337.231 555.348 -349.521C555.392 -349.583 555.433 -349.656 555.462 -349.727C566.072 -375.329 568.465 -378.138 559.021 -338.658C556.208 -321.495 556.699 -316.179 564.15 -320.726C564.295 -320.815 564.422 -320.948 564.504 -321.097C574.945 -340.12 581.674 -353.186 568.333 -305.834C566.334 -294.107 565.894 -288.457 573.417 -290.634C573.652 -290.702 573.862 -290.869 573.988 -291.079C586.426 -311.771 590.589 -316.496 578.293 -277.047C574.896 -262.648 574.549 -256.592 584.908 -260.444C585.092 -260.512 585.26 -260.64 585.374 -260.799C594.298 -273.263 599.812 -281.294 587.253 -248.296C583.149 -231.324 581.183 -222.22 591.644 -225.041C591.815 -225.087 591.978 -225.183 592.101 -225.311C601.798 -235.39 609.813 -245.568 593.87 -210.155L593.816 -209.975C589.94 -197.141 587.736 -189.844 597.924 -191.018C598.086 -191.037 598.253 -191.101 598.386 -191.195C611.47 -200.394 615.245 -200.967 600.64 -174.815C600.605 -174.753 600.575 -174.682 600.554 -174.613C595.822 -159.025 595.548 -153.196 604.204 -154.26C604.295 -154.271 604.389 -154.297 604.474 -154.333C615.035 -158.854 621.427 -161.89 605.759 -136.719C605.724 -136.664 605.692 -136.6 605.669 -136.538C601.28 -124.864 599.919 -118.968 607.035 -115.113C607.274 -114.984 607.565 -114.965 607.822 -115.053C619.785 -119.157 625.641 -120.474 606.65 -92.0397C606.605 -91.9713 606.564 -91.8904 606.537 -91.8128C601.193 -76.7123 608.289 -74.0179 625.338 -72.3868C626.059 -72.3177 626.475 -71.5265 626.118 -70.8955C611.759 -45.4682 597.598 -27.1194 616.98 -22.5393C617.032 -22.527 617.087 -22.5095 617.137 -22.4892C628.417 -17.8675 637.516 -16.7648 611.602 8.24394C611.495 8.34772 611.405 8.48268 611.353 8.623C606.615 21.5501 611.734 30.0946 628.624 38.2769C629.225 38.5682 629.381 39.3705 628.94 39.8724C605.195 66.8854 602.873 79.3146 628.721 92.4248C629.296 92.7167 629.475 93.4759 629.064 93.9737L615.011 111.007C614.809 111.252 614.735 111.577 614.811 111.885L617.334 122.036C617.518 122.777 618.443 123.034 618.997 122.508C642.656 100.034 645.553 88.0028 619.272 70.2707C618.74 69.9119 618.669 69.1284 619.13 68.6823C643.952 44.6655 644.347 33.7426 618.609 16.0344C618.122 15.6995 618.023 14.9932 618.399 14.5375C644.291 -16.8265 643.675 -28.5057 617.382 -38.3439C616.77 -38.5731 616.527 -39.343 616.895 -39.8839C642.592 -77.7081 640.072 -87.5546 615.207 -90.1641C614.454 -90.2431 614.046 -91.1172 614.461 -91.7506C637.628 -127.167 635.24 -134.537 612.525 -131.346C611.703 -131.231 611.098 -132.13 611.494 -132.86C632.953 -172.398 630.355 -179.046 608.643 -171.261C607.812 -170.963 607.03 -171.837 607.374 -172.649C627.694 -220.521 622.6 -223.044 603.021 -210.353C602.197 -209.818 601.154 -210.68 601.514 -211.594C618.627 -255.156 616.306 -261.768 595.293 -246.089C594.495 -245.495 593.386 -246.312 593.709 -247.253C609.924 -294.578 608.125 -301.679 587.642 -281.038C586.909 -280.3 585.644 -281.042 585.923 -282.045C600.853 -335.849 597.129 -338.607 578.391 -313.583C577.739 -312.712 576.326 -313.355 576.565 -314.416C588.664 -368.055 585.212 -371.47 567.753 -344.768C567.137 -343.826 565.629 -344.444 565.877 -345.542C577.576 -397.252 575.171 -403.348 554.817 -369.449C554.243 -368.493 552.725 -369.023 552.911 -370.122C561.562 -421.155 560.422 -445.548 541.085 -385.357C540.731 -384.255 539.066 -384.516 539.084 -385.672C540.143 -454.567 535.797 -456.661 521.592 -403.316C521.289 -402.18 519.573 -402.388 519.571 -403.564C519.47 -467.67 515.584 -471.744 502.232 -413.743C501.968 -412.594 500.239 -412.755 500.204 -413.934C498.357 -477.254 494.228 -479.989 482.189 -420.775C481.956 -419.628 480.248 -419.736 480.167 -420.903C475.998 -481.057 472.157 -488.736 462.247 -421.243C462.078 -420.091 460.383 -420.126 460.228 -421.28C452.702 -477.245 448.453 -482.715 442.363 -410.492C442.266 -409.348 440.609 -409.236 440.355 -410.356C428.949 -460.784 424.17 -466.801 423.662 -390.334C423.655 -389.253 422.163 -388.891 421.724 -389.878C404.586 -428.397 399.02 -431.759 408.235 -358.896C408.349 -357.995 407.307 -357.362 406.608 -357.944L398.463 -364.727C398.398 -364.781 398.323 -364.828 398.246 -364.864Z" fill="#EDC7B7" stroke="#AC3B61"/>
<path d="M609 108.551C629.55 97.657 634.781 104.771 627.771 126.542L609 108.551Z" fill="#EDC7B7" stroke="#AC3B61"/>
<path d="M611.018 202.502L611.177 202.688L611.422 202.677L624.053 202.091C624.053 202.091 624.054 202.091 624.054 202.091C625.649 202.028 627.227 202.428 628.598 203.244C629.969 204.06 631.073 205.256 631.777 206.688C631.777 206.688 631.777 206.689 631.778 206.689L636.895 217.243C636.895 217.243 636.896 217.244 636.896 217.244C637.594 218.705 637.843 220.34 637.614 221.943C637.384 223.546 636.685 225.045 635.606 226.252L622.156 241.003C621.407 241.81 620.503 242.458 619.498 242.908C618.492 243.357 617.406 243.599 616.305 243.617C615.203 243.636 614.11 243.432 613.09 243.017C612.07 242.602 611.146 241.985 610.371 241.204C583.873 213.841 578.659 185.711 581.853 161.904C585.051 138.07 596.682 118.537 603.923 108.44C604.601 107.508 605.468 106.73 606.467 106.157C607.467 105.584 608.577 105.229 609.724 105.115C610.871 105.002 612.029 105.132 613.122 105.499C614.214 105.865 615.217 106.458 616.064 107.24L616.064 107.24L616.066 107.242L630.312 120.231C631.506 121.327 632.345 122.754 632.721 124.331C633.097 125.908 632.993 127.561 632.422 129.078L632.422 129.079L628.292 140.066L628.291 140.069C627.74 141.568 626.759 142.871 625.472 143.817C624.185 144.762 622.649 145.307 621.054 145.384C621.054 145.384 621.054 145.384 621.053 145.384L608.42 145.969L608.169 145.981L608.029 146.189L608.443 146.469C608.029 146.189 608.028 146.19 608.028 146.19L608.027 146.191L608.024 146.196L608.012 146.214C608.002 146.229 607.988 146.251 607.969 146.28C607.931 146.339 607.875 146.425 607.805 146.537C607.663 146.762 607.459 147.094 607.209 147.525C606.709 148.387 606.022 149.645 605.27 151.236C603.765 154.417 601.996 158.938 600.941 164.297C598.828 175.024 599.576 189.119 611.018 202.502Z" fill="#EDC7B7" stroke="#AC3B61"/>
<path d="M113.823 -42.6194L115.72 -43.4686C115.656 -42.7268 115.595 -42.0269 115.589 -41.4305C115.585 -41.0169 115.606 -40.6249 115.676 -40.2796C115.747 -39.9362 115.874 -39.6009 116.111 -39.338C116.631 -38.7626 117.432 -38.7644 118.348 -39.0602C119.28 -39.3614 120.53 -40.0247 122.199 -41.1012L128.088 -44.1404C129.248 -44.5867 130.1 -44.7945 130.73 -44.8255C131.352 -44.8561 131.717 -44.714 131.962 -44.4966C132.223 -44.2657 132.422 -43.8861 132.575 -43.2985C132.725 -42.7252 132.816 -42.0185 132.908 -41.1761L131.849 -31.4469C131.575 -30.0817 131.484 -29.0223 131.614 -28.2446C131.681 -27.847 131.81 -27.495 132.027 -27.2115C132.249 -26.9211 132.542 -26.7311 132.884 -26.6301C133.53 -26.4389 134.337 -26.5711 135.213 -26.8338C136.111 -27.1027 137.183 -27.5425 138.409 -28.0729L138.425 -28.0797L138.44 -28.0876C140.198 -28.9963 141.722 -29.6806 143.011 -30.1118C144.309 -30.5458 145.322 -30.7075 146.076 -30.6172C146.798 -30.5308 147.273 -30.2183 147.573 -29.6556C147.893 -29.0576 148.044 -28.1232 147.944 -26.7499L146.599 -17.6945C146.32 -16.2849 146.186 -15.1534 146.262 -14.2978C146.339 -13.4311 146.648 -12.728 147.365 -12.3859C148.022 -12.0727 148.888 -12.1376 149.882 -12.3825C150.897 -12.6325 152.163 -13.1024 153.698 -13.7405C155.247 -14.2821 156.605 -14.7272 157.767 -15.0007C158.941 -15.2771 159.862 -15.3644 160.553 -15.2335C161.208 -15.1094 161.656 -14.792 161.945 -14.1959C162.248 -13.5698 162.393 -12.5984 162.3 -11.1425L158.903 -0.400538L158.902 -0.397501C158.531 0.803236 158.342 1.77465 158.421 2.52761C158.461 2.9147 158.574 3.26548 158.787 3.5611C159.002 3.85899 159.294 4.06771 159.637 4.20672C160.298 4.47378 161.193 4.49922 162.26 4.41368C163.344 4.32691 164.691 4.11658 166.302 3.84877C168.092 3.59881 169.575 3.47321 170.757 3.50905C171.952 3.54528 172.772 3.74543 173.29 4.087C173.77 4.40324 174.04 4.87386 174.065 5.62834C174.091 6.41296 173.846 7.48234 173.27 8.91003L168.124 19.5455L168.113 19.5684L168.104 19.5924C167.758 20.5446 167.585 21.3844 167.715 22.1104C167.853 22.8794 168.315 23.4421 169.047 23.8516C169.754 24.2472 170.734 24.5143 171.979 24.7248C173.229 24.936 174.793 25.0973 176.699 25.2574C177.774 25.4255 178.693 25.6441 179.401 25.98C180.104 26.3133 180.561 26.7425 180.779 27.3207C181.001 27.9108 181.01 28.747 180.621 29.9611C180.233 31.1695 179.465 32.703 178.205 34.6516L173.497 40.6506L173.49 40.6604L173.483 40.6705C172.906 41.4864 172.398 42.2097 172.025 42.8642C171.652 43.5174 171.385 44.1476 171.328 44.7806C171.208 46.1161 172.027 47.2005 173.729 48.3943C174.46 49.0836 175.148 49.7107 175.782 50.2874L175.874 50.3717C176.481 50.9235 177.034 51.4271 177.532 51.899C178.584 52.8978 179.343 53.7173 179.786 54.4877C180.216 55.2339 180.339 55.9145 180.139 56.6718C179.943 57.4144 179.423 58.2777 178.451 59.3623L176.529 58.9753C177.511 58.3184 178.218 57.5872 178.504 56.8043C178.707 56.2461 178.693 55.6694 178.422 55.1223C178.16 54.5942 177.68 54.1349 177.026 53.7385C174.854 52.2681 173.149 50.9871 171.881 49.8201C170.608 48.6485 169.803 47.6176 169.393 46.6559C168.992 45.7135 168.961 44.8174 169.28 43.8702C169.605 42.9028 170.303 41.8595 171.406 40.6638L171.417 40.6516L171.427 40.6386L177.246 33.4231L177.246 33.4231L177.25 33.4181C177.832 32.6769 178.32 32.0118 178.658 31.4178C178.991 30.8329 179.217 30.2527 179.193 29.6949C179.166 29.0939 178.855 28.6121 178.326 28.2399C177.818 27.8832 177.089 27.6104 176.149 27.3817L176.111 27.3723L176.071 27.3691C173.876 27.1935 172.012 27.0048 170.49 26.7212C168.959 26.4361 167.827 26.0637 167.064 25.5518C166.328 25.0584 165.934 24.4368 165.856 23.5821C165.774 22.6907 166.033 21.5024 166.736 19.9011L171.47 10.1155C171.979 9.2259 172.341 8.43066 172.506 7.75323C172.669 7.08329 172.665 6.41884 172.275 5.9148C171.886 5.41098 171.232 5.22254 170.477 5.20969C169.715 5.1967 168.737 5.35919 167.538 5.68526C165.425 6.0864 163.602 6.40664 162.077 6.55265C160.538 6.70009 159.363 6.6627 158.523 6.39013C157.724 6.13054 157.236 5.66329 157.01 4.87798C156.77 4.04568 156.811 2.81446 157.238 1.03056L160.09 -8.57879C160.571 -9.42113 160.879 -10.2614 160.955 -11.0135C161.033 -11.7799 160.871 -12.5248 160.312 -13.0283C159.759 -13.5262 158.938 -13.6783 157.942 -13.5397C156.945 -13.4009 155.696 -12.9629 154.175 -12.171C152.155 -11.3835 150.469 -10.7767 149.097 -10.4398C147.7 -10.0968 146.726 -10.0601 146.081 -10.3074C145.502 -10.5294 145.092 -11.0225 144.927 -12.0729C144.759 -13.1496 144.868 -14.7266 145.296 -16.9459L145.297 -16.9548L145.299 -16.9638L146.393 -24.0248C146.623 -25.0317 146.779 -25.9109 146.775 -26.613C146.77 -27.3093 146.605 -27.9809 146.023 -28.3626C145.474 -28.7223 144.713 -28.7113 143.828 -28.513C142.918 -28.3091 141.742 -27.8748 140.251 -27.2115C138.11 -26.2595 136.324 -25.5248 134.86 -25.0942C133.379 -24.6589 132.315 -24.5627 131.576 -24.7892C130.899 -24.9968 130.407 -25.5056 130.133 -26.5715C129.85 -27.6663 129.819 -29.2836 130.062 -31.5662C130.062 -31.5675 130.062 -31.5689 130.062 -31.5703L130.948 -38.7363C130.949 -38.7372 130.949 -38.7381 130.949 -38.739C131.086 -39.7568 131.128 -40.5752 131.039 -41.188C130.951 -41.7953 130.708 -42.3442 130.143 -42.5697C129.631 -42.7738 129.027 -42.632 128.432 -42.3871C127.814 -42.1321 127.072 -41.7062 126.208 -41.1541C123.988 -39.8143 122.062 -38.6923 120.421 -37.8665C118.77 -37.0356 117.451 -36.5273 116.44 -36.3818C115.446 -36.2388 114.851 -36.4543 114.474 -36.9492C114.055 -37.499 113.807 -38.5104 113.85 -40.2016L113.85 -40.2107L113.85 -40.2198L113.823 -42.6194Z" fill="#EDC7B7" stroke="#AC3B61"/>
<path d="M171.968 64.7002C174.662 55.8785 178.191 56.3772 182.463 64.3986L171.968 64.7002Z" fill="#EDC7B7" stroke="#AC3B61"/>
<path d="M176.41 84.9048L176.325 84.6757L176.091 84.6024L168.873 82.335C168.873 82.3348 168.872 82.3346 168.872 82.3345C168 82.0543 167.228 81.5272 166.65 80.8172C166.072 80.1069 165.713 79.2441 165.615 78.3335C165.615 78.3332 165.615 78.3329 165.615 78.3327L164.909 71.3515C164.909 71.351 164.909 71.3505 164.909 71.35C164.821 70.4252 165.009 69.495 165.449 68.6764C165.888 67.858 166.56 67.1878 167.38 66.7501L177.97 61.2259C178.532 60.9385 179.147 60.7676 179.777 60.7237C180.408 60.6797 181.041 60.7638 181.638 60.9708C182.235 61.1778 182.784 61.5036 183.252 61.9284C183.719 62.3525 184.096 62.8667 184.359 63.4401C193.598 84.2055 190.751 101.022 184.088 113.694C177.413 126.39 166.891 134.954 160.759 139.131C160.21 139.499 159.59 139.747 158.938 139.859C158.286 139.971 157.618 139.944 156.978 139.779C156.337 139.614 155.739 139.315 155.222 138.902C154.706 138.49 154.282 137.972 153.98 137.384L153.98 137.384L153.979 137.381L148.643 127.153C148.215 126.327 148.045 125.393 148.153 124.469C148.261 123.546 148.643 122.675 149.25 121.97L149.25 121.97L153.83 116.644L153.832 116.641C154.425 115.942 155.21 115.433 156.09 115.178C156.969 114.922 157.905 114.932 158.779 115.205L165.999 117.473L166.239 117.548L166.443 117.4L166.149 116.996C166.443 117.4 166.443 117.4 166.443 117.4L166.444 117.399L166.447 117.397L166.458 117.389L166.498 117.36C166.532 117.334 166.581 117.297 166.645 117.247C166.773 117.148 166.957 117.002 167.188 116.81C167.65 116.425 168.299 115.856 169.054 115.112C170.562 113.625 172.497 111.435 174.203 108.622C177.619 102.989 180.116 94.8499 176.41 84.9048Z" fill="#EDC7B7" stroke="#AC3B61"/>
<path d="M339.244 67.9481L335.961 64.2544C336.18 64.1422 336.398 64.0316 336.612 63.9225C337.748 63.3447 338.81 62.8044 339.682 62.255C340.853 61.5169 341.815 60.6845 342.151 59.5774C342.497 58.438 342.135 57.1774 341.081 55.7032C340.028 54.2308 338.224 52.4566 335.495 50.2338L326.955 41.6624C323.98 37.9388 323.211 35.6231 323.59 33.8247C323.78 32.9183 324.273 32.0846 325.032 31.2198C325.784 30.3627 326.771 29.5035 327.932 28.5292L342.771 21.4594C344.942 20.7101 346.502 19.9061 347.49 18.9693C348.51 18.0019 348.916 16.8941 348.76 15.6304C348.611 14.4127 347.946 13.0946 346.953 11.646C345.955 10.1888 344.585 8.5435 342.959 6.66844L342.948 6.65518L342.936 6.64275C337.816 1.51154 334.661 -2.65289 333.791 -6.03728C333.362 -7.70287 333.494 -9.15451 334.199 -10.4495C334.909 -11.7536 336.232 -12.9558 338.296 -14.0517L352.338 -19.9277C354.574 -20.7078 356.278 -21.4992 357.427 -22.4193C358.6 -23.3586 359.222 -24.4561 359.216 -25.805C359.211 -27.1093 358.617 -28.5695 357.57 -30.258C356.519 -31.9535 354.972 -33.9416 352.973 -36.3153C351.103 -38.8097 349.493 -41.0392 348.268 -43.0586C347.039 -45.0846 346.216 -46.867 345.894 -48.4643C345.575 -50.0453 345.748 -51.4365 346.506 -52.7192C347.265 -54.0045 348.642 -55.2303 350.83 -56.4186L368.755 -59.904L368.759 -59.9049C370.759 -60.3111 372.257 -60.851 373.241 -61.6668C374.265 -62.5152 374.689 -63.624 374.62 -65.0153C374.553 -66.368 374.02 -68.0039 373.152 -69.9845C372.28 -71.973 371.044 -74.362 369.526 -77.2327C367.907 -80.4723 366.67 -83.259 365.877 -85.6296C365.083 -88.0081 364.751 -89.9259 364.901 -91.4409C365.05 -92.9286 365.662 -94.0307 366.8 -94.83C367.961 -95.6453 369.711 -96.1743 372.182 -96.3948H391.16H391.194L391.227 -96.3994C392.85 -96.6213 394.136 -97.0705 395.03 -97.9395C395.936 -98.8193 396.365 -100.054 396.437 -101.675C396.509 -103.288 396.231 -105.339 395.668 -107.927C395.105 -110.516 394.248 -113.677 393.144 -117.52C392.629 -119.781 392.281 -121.848 392.271 -123.641C392.26 -125.438 392.588 -126.907 393.374 -128.013C394.151 -129.108 395.426 -129.917 397.457 -130.3C399.493 -130.684 402.262 -130.632 405.97 -130.016L417.942 -126.524L417.957 -126.52L417.973 -126.516C419.557 -126.163 420.951 -125.861 422.15 -125.751C423.35 -125.642 424.423 -125.719 425.34 -126.182C426.271 -126.652 426.969 -127.48 427.497 -128.723C428.019 -129.95 428.388 -131.611 428.653 -133.807C429.141 -135.877 429.569 -137.805 429.962 -139.583L430.02 -139.845C430.393 -141.531 430.735 -143.079 431.071 -144.489C431.78 -147.464 432.451 -149.777 433.297 -151.437C434.136 -153.086 435.11 -154.02 436.398 -154.355C437.704 -154.695 439.446 -154.452 441.893 -153.463L458.543 -138.812L457.814 -134.378L443.926 -146.867C442.784 -148.007 441.688 -148.881 440.669 -149.447C439.654 -150.011 438.669 -150.294 437.774 -150.173C436.852 -150.049 436.111 -149.507 435.588 -148.607C435.078 -147.727 434.77 -146.499 434.661 -144.939C434.054 -139.341 433.389 -134.803 432.577 -131.207C431.764 -127.603 430.811 -124.985 429.649 -123.204C428.498 -121.44 427.155 -120.514 425.532 -120.239C423.879 -119.958 421.861 -120.339 419.348 -121.358L419.328 -121.366L419.308 -121.372L404.808 -125.872L404.808 -125.872L404.8 -125.875C403.323 -126.306 402.03 -126.625 400.946 -126.722C399.867 -126.818 398.91 -126.705 398.179 -126.178C397.435 -125.641 397.034 -124.757 396.889 -123.568C396.745 -122.381 396.844 -120.819 397.166 -118.815L397.171 -118.785L397.179 -118.755C398.461 -114.346 399.501 -110.537 400.163 -107.291C400.826 -104.039 401.103 -101.39 400.882 -99.2917C400.662 -97.2066 399.956 -95.7058 398.682 -94.6802C397.395 -93.6437 395.455 -93.0335 392.647 -92.8948H375.183C373.543 -93.0469 372.154 -93.0015 371.079 -92.6925C369.983 -92.3777 369.167 -91.7717 368.802 -90.7914C368.449 -89.8429 368.56 -88.6513 369.046 -87.2472C369.535 -85.8369 370.425 -84.1422 371.731 -82.1368C373.792 -78.4198 375.545 -75.1686 376.837 -72.3252C378.133 -69.4728 378.947 -67.0686 379.155 -65.0451C379.362 -63.039 378.971 -61.4368 377.882 -60.1296C376.78 -58.8066 374.913 -57.7233 372.036 -56.8796L356.129 -53.4001C354.579 -53.5445 353.165 -53.3541 352.054 -52.8115C350.91 -52.2531 350.094 -51.322 349.818 -50.0494C349.546 -48.795 349.813 -47.2792 350.674 -45.5541C351.535 -43.8311 353.006 -41.8622 355.209 -39.6691C357.767 -36.4932 359.846 -33.7735 361.315 -31.3999C362.791 -29.0133 363.616 -27.0313 363.723 -25.3295C363.828 -23.6682 363.253 -22.2244 361.794 -20.8723C360.312 -19.4983 357.92 -18.2249 354.414 -16.9751L354.403 -16.9712L354.392 -16.9669L343.413 -12.4754C341.793 -11.9759 340.431 -11.4609 339.445 -10.8125C338.439 -10.151 337.772 -9.31389 337.661 -8.17758C337.554 -7.08029 337.98 -5.8102 338.879 -4.29576C339.784 -2.77106 341.209 -0.930969 343.207 1.32719C346.081 4.5755 348.41 7.3613 350.076 9.81882C351.746 12.2822 352.716 14.3675 352.929 16.2169C353.139 18.0323 352.624 19.6668 351.209 21.2706C349.776 22.8949 347.419 24.486 343.948 26.152C343.946 26.1528 343.945 26.1536 343.943 26.1544L332.959 31.1472C332.958 31.1478 332.956 31.1483 332.955 31.1488C331.388 31.836 330.204 32.5082 329.416 33.2215C328.616 33.9455 328.184 34.7523 328.233 35.6789C328.281 36.5709 328.772 37.4629 329.543 38.3848C330.32 39.3134 331.435 40.3338 332.837 41.4869C336.328 44.5271 339.307 47.2116 341.66 49.6239C344.019 52.0419 345.721 54.1591 346.68 56.0606C347.634 57.9512 347.831 59.5809 347.264 61.0763C346.689 62.5929 345.29 64.0736 342.822 65.5683L342.813 65.5737L342.805 65.5796L339.244 67.9481Z" fill="#EDC7B7" stroke="#AC3B61"/>
<path d="M332.285 63.0502C341.92 58.5358 344.222 61.942 340.659 71.801L332.285 63.0502Z" fill="#EDC7B7" stroke="#AC3B61"/>
<path d="M316.429 151.553L316.554 151.763L316.797 151.792L328.508 153.228C328.508 153.228 328.509 153.228 328.509 153.228C329.979 153.418 331.362 154.03 332.491 154.991C333.62 155.951 334.445 157.219 334.867 158.64C334.867 158.64 334.867 158.641 334.867 158.641L337.926 169.149C337.926 169.149 337.926 169.15 337.926 169.15C338.338 170.597 338.312 172.133 337.852 173.565C337.393 174.997 336.52 176.261 335.343 177.199L320.665 188.666C319.854 189.289 318.926 189.742 317.935 189.997C316.944 190.252 315.912 190.304 314.9 190.15C313.888 189.996 312.919 189.639 312.049 189.1C311.18 188.561 310.429 187.853 309.841 187.017C289.749 157.714 289.35 131.033 296.006 109.642C302.67 88.2245 316.417 72.079 324.654 63.9242C325.42 63.1761 326.335 62.5985 327.34 62.2292C328.345 61.8598 329.417 61.7073 330.485 61.7818C331.553 61.8562 332.593 62.156 333.536 62.6613C334.48 63.1666 335.306 63.8661 335.96 64.7136L335.96 64.7136L335.962 64.716L347.037 78.8915C347.96 80.0805 348.506 81.5185 348.605 83.0208C348.704 84.5233 348.352 86.0213 347.592 87.3221L347.592 87.3223L342.076 96.7841L342.074 96.7872C341.336 98.0741 340.236 99.1152 338.91 99.7805C337.584 100.446 336.092 100.706 334.619 100.528L322.907 99.0923L322.657 99.0617L322.484 99.2438L322.846 99.5886C322.484 99.2438 322.484 99.2441 322.483 99.2444L322.482 99.2456L322.478 99.2495L322.465 99.2639C322.453 99.2764 322.436 99.2946 322.414 99.3185C322.37 99.3664 322.305 99.4369 322.223 99.5296C322.057 99.7149 321.818 99.9888 321.52 100.346C320.925 101.061 320.095 102.112 319.154 103.459C317.272 106.152 314.936 110.037 313.127 114.804C309.504 124.349 307.988 137.443 316.429 151.553Z" fill="#EDC7B7" stroke="#AC3B61"/>
</g>
<defs>
<clipPath id="clip0">
<rect width="690" height="300" fill="white"/>
</clipPath>
</defs>
</svg>
